<?xml version="1.0" encoding="UTF-8"?>
<svg id="_400px" data-name="400px" xmlns="http://www.w3.org/2000/svg" viewBox="0 0 400 400">
  <defs>
    <style>
      .cls-1 {
        fill: #0098c7;
      }

      .cls-1, .cls-2 {
        stroke-width: 0px;
      }

      .cls-2 {
        fill: #005c8a;
      }
    </style>
  </defs>
  <path class="cls-1" d="M362.83,141.79c-15.37-15.37-34.31-26.51-54.97-32.37-24.8-41.95-70.1-67.87-119.05-67.87-36.93,0-71.66,14.38-97.78,40.5-16.9,16.9-29.11,37.76-35.44,60.51C21.21,163.71,0,201.46,0,241.89c0,31.13,12.12,60.4,34.14,82.42,10.55,10.55,22.78,18.82,36.07,24.58,4.97,2.15,10.09,3.97,15.33,5.41,0,0,0,0,.01,0l13.38-13.38s-.01,0-.02,0l118.26-118.26v45.11c0,4.42,3.58,8,8,8s8-3.58,8-8v-64.41h0v-8.01h-72.42c-4.42,0-8,3.58-8,8s3.58,8,8,8h45.11l-124.71,124.71c-13.25-4.97-25.4-12.75-35.7-23.06-18.99-18.99-29.45-44.25-29.45-71.11,0-35.85,19.34-69.26,50.48-87.2l2.94-1.69.83-3.29c5.34-21.21,16.45-40.69,32.1-56.35,23.09-23.09,53.8-35.81,86.46-35.81,44.3,0,85.22,24,106.79,62.63l1.68,3.01,3.34.85c19.15,4.87,36.75,14.92,50.9,29.07,20.95,20.95,32.49,48.8,32.49,78.43s-11.54,57.48-32.49,78.43c-20.95,20.95-48.8,32.49-78.43,32.49h-140.32l-16,16h156.32c33.9,0,65.77-13.2,89.75-37.17,23.97-23.97,37.17-55.84,37.17-89.74s-13.2-65.77-37.17-89.74Z"/>
  <path class="cls-2" d="M276.38,150.68c-12.43-37.47-47.59-63.13-87.58-63.13-48.98,0-89.18,38.37-92.11,86.63-29.74,8.69-50.7,36.2-50.7,67.71,0,25.42,13.52,47.74,33.73,60.16l11.74-11.74c-17.49-9.1-29.47-27.38-29.47-48.42,0-26.06,18.54-48.57,44.08-53.54l6.53-1.27-.06-6.65c0-.18,0-.36-.01-.54v-.06c0-42.06,34.21-76.28,76.27-76.28,34.79,0,65.16,23.49,73.85,57.13l1.61,6.23,6.66-.24c.71-.03,1.43-.05,2.15-.05,35.79,0,64.92,29.12,64.92,64.92s-29.12,64.92-64.92,64.92h-94.32l-16,16h110.32c44.62,0,80.92-36.3,80.92-80.92s-34.52-79.11-77.62-80.85Z"/>
</svg>